<svg width="14" height="13" viewBox="0 0 14 13" fill="none" xmlns="http://www.w3.org/2000/svg">
<path d="M5 5.5C6.38071 5.5 7.5 4.38071 7.5 3C7.5 1.61929 6.38071 0.5 5 0.5C3.61929 0.5 2.5 1.61929 2.5 3C2.5 4.38071 3.61929 5.5 5 5.5Z" stroke="#637381" stroke-linecap="round" stroke-linejoin="round"/>
<path d="M0.5 12.5001H5H9.5V11.958C9.49204 11.1958 9.29102 10.448 8.91573 9.78462C8.54043 9.12112 8.0031 8.56362 7.35393 8.16413C6.70475 7.76463 5.96491 7.5362 5.20352 7.50015C5.13564 7.49694 5.06778 7.49526 5 7.49512C4.93222 7.49526 4.86436 7.49694 4.79648 7.50015C4.03509 7.5362 3.29525 7.76463 2.64607 8.16413C1.9969 8.56362 1.45957 9.12112 1.08427 9.78462C0.708977 10.448 0.507961 11.1958 0.5 11.958V12.5001Z" stroke="#637381" stroke-linecap="round" stroke-linejoin="round"/>
<path d="M9 5.5C10.3807 5.5 11.5 4.38071 11.5 3C11.5 1.61929 10.3807 0.5 9 0.5" stroke="#637381" stroke-linecap="round" stroke-linejoin="round"/>
<path d="M11.5 12.5002H13.5V11.958C13.492 11.1958 13.291 10.448 12.9157 9.78462C12.5404 9.12112 12.0031 8.56364 11.3539 8.16415C10.9343 7.9059 10.4767 7.71914 10 7.60962" stroke="#637381" stroke-linecap="round" stroke-linejoin="round"/>
</svg>
